<?xml version="1.0" standalone="no"?><!DOCTYPE svg PUBLIC "-//W3C//DTD SVG 1.1//EN" "http://www.w3.org/Graphics/SVG/1.1/DTD/svg11.dtd"><svg t="1739854993437" class="icon" viewBox="0 0 1024 1024" version="1.1" xmlns="http://www.w3.org/2000/svg" p-id="20012" xmlns:xlink="http://www.w3.org/1999/xlink" width="200" height="200"><path d="M473.6 576c4.608 2.56 9.728 4.096 15.36 4.096s10.24-1.536 15.36-4.096l78.336-45.568c9.216-5.632 15.36-15.36 15.36-26.112 0-10.752-5.632-20.992-15.36-26.112l-78.336-45.568c-9.216-5.632-20.992-5.632-30.208 0-9.216 5.632-15.36 15.36-15.36 26.112v90.624c0 10.752 5.632 20.992 14.848 26.624z m26.112-98.816l46.592 26.624-46.592 26.624v-53.248z" fill="#202129" p-id="20013"></path><path d="M819.712 112.128h-615.936c-44.544 0-80.384 36.352-80.384 80.384V808.96c0 44.544 36.352 80.384 80.384 80.384H819.712c44.544 0 80.384-36.352 80.384-80.384V193.024c0-44.544-36.352-80.896-80.384-80.896zM174.08 193.024c0-16.384 13.312-29.184 29.184-29.184H819.712c1.024 0 2.56 0 3.584 0.512H793.088l-79.36 79.36H655.36L735.232 163.84h-49.664l-79.36 79.36h-64.512l79.36-79.36h-49.664L491.52 243.2h-56.832l79.36-79.36h-49.664l-79.36 79.36h-55.808l79.36-79.36h-49.664l-79.36 79.36h-55.808l79.36-79.36h-49.664l-79.36 79.36v-50.176zM848.896 808.96c0 16.384-13.312 29.184-29.184 29.184h-615.936c-16.384 0-29.184-13.312-29.184-29.184V284.16H848.896V808.96z m0-565.76H763.392l73.728-73.728c7.168 5.12 11.776 13.824 11.776 23.552v50.176z" fill="#202129" p-id="20014"></path></svg>